<?xml version="1.0" standalone="no"?><!DOCTYPE svg PUBLIC "-//W3C//DTD SVG 1.1//EN" "http://www.w3.org/Graphics/SVG/1.1/DTD/svg11.dtd"><svg t="1571016004224" class="icon" viewBox="0 0 1024 1024" version="1.1" xmlns="http://www.w3.org/2000/svg" p-id="8938" width="128" height="128" xmlns:xlink="http://www.w3.org/1999/xlink"><defs><style type="text/css"></style></defs><path d="M874.7 64h-512c-23.5 0-42.7 19.2-42.7 42.7V192H149.3c-23.5 0-42.7 19.2-42.7 42.7v682.7c0 23.5 19.2 42.7 42.7 42.7h725.3c23.5 0 42.7-19.2 42.7-42.7V106.7c0-23.5-19.2-42.7-42.6-42.7z m0 832c0 11.7-9.6 21.3-21.3 21.3H170.7c-11.7 0-21.3-9.6-21.3-21.3V256c0-11.7 9.6-21.3 21.3-21.3H341.3c11.8 0 21.3-9.6 21.3-21.3V128c0-11.7 9.6-21.3 21.3-21.3h469.3c11.7 0 21.3 9.6 21.3 21.3v768z" p-id="8939"></path><path d="M775.3 405.9c-11-4-23.3 1.7-27.3 12.8l-94.6 259.8c-22.8-49.1-63.5-88.3-114.1-108.5 34.4-27.1 54.7-71.3 47.6-119.9-8.2-56.2-54.9-101.4-111.4-107.9-77.5-8.9-143.2 51.4-143.2 127.1 0 40.9 19.2 77.2 49 100.6-78.6 31.4-134.1 108.2-134.1 198.1h42.5c0-94.3 76.4-170.7 170.7-170.7 88 0 160.5 66.7 169.7 152.3 0.9 8.1 6.5 14.5 13.9 17.1h0.1c2.2 0.8 4.5 1.3 6.9 1.3 0.2 0 0.4-0.1 0.6-0.1 8.6-0.2 16.6-5.4 19.7-13.9L788 433.3c4.1-11.1-1.7-23.4-12.7-27.4zM446.9 553.6c-35.9-5.5-65.3-34.9-70.8-70.8-8.8-57.7 40.1-106.6 97.8-97.8 35.9 5.5 65.3 34.9 70.8 70.8 8.8 57.7-40.2 106.7-97.8 97.8z" p-id="8940"></path></svg>