<?xml version="1.0" standalone="no"?><!DOCTYPE svg PUBLIC "-//W3C//DTD SVG 1.1//EN" "http://www.w3.org/Graphics/SVG/1.1/DTD/svg11.dtd"><svg t="1560398518808" class="icon" style="" viewBox="0 0 1024 1024" version="1.1" xmlns="http://www.w3.org/2000/svg" p-id="2197" xmlns:xlink="http://www.w3.org/1999/xlink" width="200" height="200"><defs><style type="text/css"></style></defs><path d="M224.4 538.3h346.7c14.5 0 26.6-12.2 26.6-26.9 0-14.6-12.1-26.8-26.6-26.8H224.4c-14.5 0-26.6 12.2-26.6 26.8 0 14.7 12.1 26.9 26.6 26.9M224.4 748h138.7c14.5 0 26.6-12.2 26.6-26.9 0-14.6-12.1-26.9-26.6-26.9H224.4c-14.5 0-26.6 12.2-26.6 26.9s12.1 26.9 26.6 26.9M359.8 328.6h211.3c14.5 0 26.6-12.2 26.6-26.8s-12.1-26.9-26.6-26.9H224.4c-14.5 0-26.6 12.2-26.6 26.9 0 14.6 12.1 26.8 26.6 26.8h135.4z" fill="#409eff" p-id="2198"></path><path d="M844.9 133.8c-15.4-26.1-39.6-44.7-67.5-55.4-18.7-7.2-38.3-7.4-58-7.4H193.7c-17.2 0-33.9-0.1-50.9 4.2-55.7 14.1-95.6 67.6-95.6 125.1v624.1c0 37.6 13.8 73.8 41.8 99.4 22.7 20.7 51.4 32.2 81.9 33.8 6 0.3 12 0.1 18 0.1H420.5c14.5 0 26.6-12.2 26.6-26.9 0-14.6-12.1-26.8-26.6-26.8H175.8c-2.7 0-5.4-0.1-8-0.3-0.6 0-1.3-0.1-1.9-0.2 2 0.3 3.9 0.5-2.7-0.3l2.7 0.3c-0.6-0.1-1.2-0.1-1.6-0.2-3.4-0.6-6.8-1.5-10.2-2.4-2.7-0.8-5.3-1.7-7.9-2.7 0.1 0.1 0.3 0.1 0.5 0.2 5 2.3-6.1-2.4-0.9-0.4 0.1 0.1 0.3 0.1 0.5 0.2-1.2-0.6-2.3-1.1-3.5-1.7-2.6-1.3-5.2-2.8-7.6-4.3-1.3-0.8-5.7-4.1-6.6-4.7 0.8 0.7 1.7 1.4 2.5 2.1-2.5-2-3-2.4-2.5-2.1-3.6-3-6.9-6.4-10.1-9.9-0.8-0.9-1.7-1.9-2.5-2.9 0.1 0.1 0.2 0.3 0.3 0.4 3.2 4.4-4.1-5-0.6-0.8 0.1 0.1 0.2 0.3 0.4 0.4-1.9-2.6-3.7-5.4-5.3-8.2-1.5-2.5-2.8-5.1-4.1-7.8-0.1-0.3-0.3-0.7-0.5-1.1 0.3 0.7 0.5 1.4 0.8 2.1-2.6-6.4-1.7-4-0.8-2.1-0.3-0.7-0.5-1.4-0.8-2.1-1.8-5-3.1-10-4.1-15.2 0.1 0.4-0.1-0.4-0.6-3.7 0.2 1.2 0.4 2.5 0.6 3.7 0-0.7-0.6-5.8-0.7-7.3-0.1-1.6-0.1-3.1-0.1-4.7V200.4c0-2.1 0.1-4.2 0.2-6.2 0.1-1.3 0.2-2.6 0.3-4 0 0.1-0.1 0.3-0.1 0.4-0.9 5.6 0.7-6.8 0.1-1.1 0 0.2 0 0.4-0.1 0.6 1-6.3 2.8-12.4 4.9-18.4 0.1-0.2 0.2-0.6 0.3-0.9-0.3 0.6-0.6 1.2-0.8 1.8 2.8-6.6 1.6-3.8 0.8-1.8 0.3-0.7 0.7-1.5 1.1-2.2 1.3-2.6 2.7-5.2 4.2-7.7 1.4-2.4 3-4.7 4.5-6.9-0.1 0.1-0.2 0.3-0.4 0.4-3.4 4.2 3.8-5.3 0.6-0.8-0.1 0.1-0.2 0.3-0.3 0.4 1.1-1.4 2.3-2.7 3.4-4 1.9-2.2 4-4.2 6.2-6.2 0.9-0.8 3.8-3.2 4.9-4.2-0.9 0.6-1.7 1.2-2.5 1.8 3.1-2.4 3.4-2.5 2.5-1.8 4.3-3.1 8.8-5.8 13.6-8.1l1.8-0.9c-0.4 0.1-0.7 0.3-1 0.4-1.4 0.6-0.9 0.4 0 0 0.6-0.3 1.6-0.7 3.1-1.4-0.7 0.3-1.4 0.7-2.2 1 0.5-0.2 0.9-0.4 1.3-0.5 2.8-1.1 5.6-1.9 8.4-2.8 2.9-0.8 5.8-1.4 8.8-2 0.3-0.1 0.6-0.1 1.1-0.2-0.7 0.1-1.4 0.1-2.1 0.2 7.2-0.9 4.3-0.6 2.1-0.2 1.3-0.1 2.6-0.2 4-0.3 2.5-0.1 5-0.2 7.5-0.2H736.3c2.9 0 5.7 0.2 8.6 0.5-0.1 0-0.3-0.1-0.4-0.1-5.6-0.9 6.7 0.7 1.1 0.1-0.2 0-0.4 0-0.6-0.1 1.8 0.3 3.7 0.7 5.5 1.1 2.9 0.6 5.8 1.5 8.6 2.4 1.2 0.4 4.7 1.8 6.1 2.3-0.9-0.5-1.9-0.9-2.9-1.3 3.7 1.6 3.9 1.8 2.9 1.3 4.7 2.3 9.3 5 13.7 7.9 0.5 0.4 1 0.7 1.5 1.1-0.4-0.3-0.8-0.6-1.1-0.9-0.6-0.4-0.4-0.3 0 0 0.5 0.4 1.4 1.1 3.1 2.4-0.6-0.5-1.3-1-2-1.5 0.4 0.3 0.8 0.7 1.1 0.9 2.2 1.9 4.3 3.9 6.4 5.9 2.1 2.1 4 4.2 5.9 6.4 0.1 0.2 0.4 0.4 0.6 0.7-0.4-0.5-0.7-1.1-1.1-1.6 4.3 5.6 2.5 3.2 1.1 1.6 0.7 1.1 1.5 2.1 2.2 3.2 2.6 3.9 4.8 7.9 6.8 12.1-0.1-0.2 0.4 0.6 1.6 3.3-0.5-1.1-1-2.3-1.6-3.3 0.1 0.4 2.1 5.2 2.5 6.6 1.1 3.3 1.9 6.7 2.7 10.2 0.3 1.3 0.5 2.7 0.8 4 0-0.2-0.1-0.4-0.1-0.6-0.6-5.7 1.1 6.7 0.1 1.1 0-0.1-0.1-0.3-0.1-0.4 0.3 2.9 0.4 5.8 0.5 8.6v180.9c0 14.6 12.1 26.8 26.6 26.8 14.5 0 26.6-12.2 26.6-26.8V200.6c0.2-23.2-6.1-46.6-18.1-66.8" fill="#409eff" p-id="2199"></path><path d="M935 780.4h-54.5L774.2 637c43.7-14.9 75.3-54.7 75.3-101.8 0-59.8-50.4-108.4-112.4-108.4-62 0-112.4 48.6-112.4 108.4 0 47.2 31.6 87 75.3 101.8L593.8 780.4h-54.4c-27.4 0-49.6 21.4-49.6 47.8v77.1c0 26.4 22.3 47.9 49.6 47.9H935c27.4 0 49.7-21.5 49.7-47.9v-77.1c-0.1-26.3-22.4-47.8-49.7-47.8M667.3 535.2c0-37.1 31.3-67.4 69.9-67.4 38.5 0 69.9 30.2 69.9 67.4 0 36.9-31 66.9-69.2 67.3h-1.3c-38.3-0.3-69.3-30.3-69.3-67.3m63.3 131.2l12.5-0.8 85.1 114.7H646.1l84.5-113.9m211.5 238.9c0 3.7-3.2 6.8-7.1 6.8H539.3c-3.8 0-7.1-3.1-7.1-6.8v-77.1c0-3.7 3.2-6.8 7.1-6.8H935c3.8 0 7.1 3.1 7.1 6.8v77.1" fill="#409eff" p-id="2200"></path></svg>