<?xml version="1.0" standalone="no"?><!DOCTYPE svg PUBLIC "-//W3C//DTD SVG 1.1//EN" "http://www.w3.org/Graphics/SVG/1.1/DTD/svg11.dtd"><svg t="1571015180402" class="icon" viewBox="0 0 1024 1024" version="1.1" xmlns="http://www.w3.org/2000/svg" p-id="3398" xmlns:xlink="http://www.w3.org/1999/xlink" width="200" height="200"><defs><style type="text/css"></style></defs><path d="M1002.581333 339.349333C1000.682667 200.746667 886.250667 88.298667 746.645333 88.298667c-106.325333 0-195.882667 60.458667-234.944 148.778666-39.765333-88-130.026667-149.653333-234.325333-149.653333-139.626667 0-254.08 112.874667-255.936 251.968a21.333333 21.333333 0 0 0 1.258667 9.322667c1.856 36.48 13.226667 77.994667 33.152 120.810666l38.677333-18.005333c-19.264-41.365333-29.44-80.554667-29.44-113.301333a20.778667 20.778667 0 0 0-0.768-5.653334c5.418667-112.448 99.178667-202.474667 213.056-202.474666 116.885333 0 212.565333 92.48 213.312 206.144a21.333333 21.333333 0 0 0 42.666667 0c0.746667-115.114667 94.442667-205.269333 213.312-205.269334 116.864 0 212.544 94.421333 213.290666 210.496l0.064 1.536c-1.941333 218.986667-374.698667 495.850667-447.786666 548.053334-49.173333-36.373333-235.712-179.114667-352.213334-333.973334l204.096 2.944c5.162667 0.213333 11.456-2.24 15.530667-6.4L426.666667 505.664v129.664a21.354667 21.354667 0 0 0 36.309333 15.189333L640 475.861333V554.666667a21.333333 21.333333 0 0 0 21.333333 21.333333h128v-42.666667h-106.666666v-108.48a21.312 21.312 0 0 0-36.309334-15.189333L469.333333 584.298667v-130.858667c0-8.661333-5.248-16.682667-13.269333-19.989333a21.333333 21.333333 0 0 0-23.296 4.586666l-77.184 78.250667L118.442667 512h-0.298667c-7.829333 0-15.04 5.184-18.752 12.074667-3.776 6.997333-3.370667 16.384 1.066667 22.976 130.922667 194.218667 379.136 373.333333 398.421333 387.093333a21.269333 21.269333 0 0 0 26.730667-0.341333C561.642667 909.034667 1002.666667 600.298667 1002.666667 341.333333a20.565333 20.565333 0 0 0-0.085334-1.984z" p-id="3399" fill="#409eff"></path></svg>