<?xml version="1.0" standalone="no"?><!DOCTYPE svg PUBLIC "-//W3C//DTD SVG 1.1//EN" "http://www.w3.org/Graphics/SVG/1.1/DTD/svg11.dtd"><svg t="1571013844600" class="icon" viewBox="0 0 1024 1024" version="1.1" xmlns="http://www.w3.org/2000/svg" p-id="1200" xmlns:xlink="http://www.w3.org/1999/xlink" width="200" height="200"><defs><style type="text/css"></style></defs><path d="M220 960.8c-9.3 0-18.7-2.1-27.5-6.5-21.3-10.5-34.6-31.8-34.6-55.6v-54.4H152c-83.8 0-152-68.2-152-152v-272c0-83.8 68.2-152 152-152h494c83.8 0 152 68.2 152 152v272c0 83.8-68.2 152-152 152H392.8L257.7 948c-11.1 8.5-24.3 12.8-37.7 12.8z m-68-628.5c-48.5 0-88 39.5-88 88v272c0 48.5 39.5 88 88 88h33.9c19.9 0 36 16.1 36 36v78.4l139.5-106.9c6.2-4.8 14-7.4 21.9-7.4H646c48.5 0 88-39.5 88-88v-272c0-48.5-39.5-88-88-88H152z m248.4 506.2c0 0.1 0 0.1 0 0z" p-id="1201"></path><path d="M872 625.6c-17.7 0-32-14.3-32-32s14.3-32 32-32c48.5 0 88-39.5 88-88v-272c0-48.5-39.5-88-88-88H378c-48.5 0-88 39.5-88 88 0 17.7-14.3 32-32 32s-32-14.3-32-32c0-83.8 68.2-152 152-152h494c83.8 0 152 68.2 152 152v272c0 83.8-68.2 152-152 152z" p-id="1202"></path><path d="M573.6 513.2h-350c-17.6 0-32-14.4-32-32s14.4-32 32-32h350c17.6 0 32 14.4 32 32s-14.4 32-32 32zM505.4 640.6h-282c-17.6 0-32-14.4-32-32s14.4-32 32-32h282c17.6 0 32 14.4 32 32s-14.4 32-32 32z" p-id="1203"></path></svg>