<?xml version="1.0" standalone="no"?><!DOCTYPE svg PUBLIC "-//W3C//DTD SVG 1.1//EN" "http://www.w3.org/Graphics/SVG/1.1/DTD/svg11.dtd"><svg t="1560397709533" class="icon" style="" viewBox="0 0 1024 1024" version="1.1" xmlns="http://www.w3.org/2000/svg" p-id="1946" xmlns:xlink="http://www.w3.org/1999/xlink" width="200" height="200"><defs><style type="text/css"></style></defs><path d="M252.545727 963.102449h-153.523238c15.352324-213.909045 194.974513-383.296352 412.977511-383.296352 51.174413 0 100.301849 9.211394 145.847076 26.610695l46.568716-46.056972c-2.558721-1.023488-4.605697-2.046977-7.164418-3.070465-13.305347-5.629185-27.122439-10.746627-40.93953-14.840579 22.004998-12.793603 42.474763-28.145927 60.897551-46.568716 54.756622-54.756622 84.949525-126.912544 84.949526-204.185907 0-77.273363-30.192904-149.429285-84.949526-204.185907C661.941029 32.751624 589.273363 2.558721 512 2.558721 434.726637 2.558721 362.058971 32.751624 307.302349 86.996502 252.545727 141.753123 222.352824 214.42079 222.352824 291.182409c0 77.273363 30.192904 149.429285 84.949525 204.185907 18.422789 18.422789 38.892554 33.775112 60.897551 46.568715-13.817091 4.605697-27.634183 9.211394-40.93953 14.84058-56.291854 24.051974-107.466267 57.827086-150.964518 101.325338S98.510745 752.263868 74.458771 808.555722c-24.563718 58.338831-37.357321 120.25987-37.357322 184.227886 0 16.887556 13.305347 30.192904 30.192904 30.192904h185.251374c16.887556 0 30.192904-13.305347 30.192904-30.192904 0.511744-15.864068-13.305347-29.681159-30.192904-29.681159z m30.704648-671.92004c0-125.889055 102.86057-228.237881 228.749625-228.237881s228.749625 102.348826 228.749625 228.237881-102.86057 228.237881-228.749625 228.237881-228.749625-102.348826-228.749625-228.237881z m666.290854 517.885057c-21.493253-50.662669-51.686157-96.71964-89.043478-137.147426l-42.986507 42.986507c61.409295 66.526737 100.813593 153.011494 107.978011 248.707646h-154.034982c-16.887556 0-30.192904 13.305347-30.192904 30.192903 0 16.887556 13.305347 30.192904 30.192904 30.192904h185.251374c16.887556 0 30.192904-13.305347 30.192904-30.192904-0.511744-64.47976-12.793603-126.4008-37.357322-184.73963z m-106.954522-253.825087c-11.770115-11.770115-30.704648-11.770115-42.986507 0l-288.623688 287.6002L384.575712 716.441779c-11.770115-11.770115-30.704648-11.770115-42.986507 0-11.770115 11.770115-11.770115 30.704648 0 42.474763l147.894053 147.382309c6.14093 6.14093 13.817091 8.69965 21.493254 8.69965s15.352324-3.070465 21.493253-8.69965l309.605198-309.093454c12.281859-11.258371 12.281859-30.192904 0.511744-41.963018z" fill="#409eff" p-id="1947"></path></svg>