<?xml version="1.0" standalone="no"?><!DOCTYPE svg PUBLIC "-//W3C//DTD SVG 1.1//EN" "http://www.w3.org/Graphics/SVG/1.1/DTD/svg11.dtd"><svg t="1560405069374" class="icon" style="" viewBox="0 0 1024 1024" version="1.1" xmlns="http://www.w3.org/2000/svg" p-id="1900" xmlns:xlink="http://www.w3.org/1999/xlink" width="200" height="200"><defs><style type="text/css"></style></defs><path d="M490.666667 981.333333c-232.533333-12.8-422.4-206.933333-426.666667-439.466666-2.133333-142.933333 59.733333-275.2 172.8-362.666667 10.666667-8.533333 21.333333-14.933333 32-21.333333 21.333333-14.933333 51.2-6.4 61.866667 17.066666 10.666667 19.2 2.133333 42.666667-14.933334 55.466667l-25.6 19.2c-96 74.666667-147.2 192-138.666666 315.733333 12.8 179.2 162.133333 324.266667 343.466666 332.8C701.866667 904.533333 874.666667 738.133333 874.666667 533.333333c0-113.066667-51.2-217.6-140.8-285.866666-8.533333-6.4-17.066667-12.8-25.6-17.066667-19.2-12.8-25.6-36.266667-14.933334-55.466667 10.666667-23.466667 40.533333-29.866667 61.866667-17.066666 10.666667 6.4 21.333333 14.933333 32 21.333333C896 264.533333 960 394.666667 960 533.333333c0 253.866667-213.333333 458.666667-469.333333 448z" fill="#333" p-id="1901"></path><path d="M512 554.666667c-23.466667 0-42.666667-19.2-42.666667-42.666667V85.333333c0-23.466667 19.2-42.666667 42.666667-42.666666s42.666667 19.2 42.666667 42.666666v426.666667c0 23.466667-19.2 42.666667-42.666667 42.666667z" fill="#333" p-id="1902"></path></svg>