<svg t="1572854204689" class="icon" viewBox="0 0 1024 1024" version="1.1" xmlns="http://www.w3.org/2000/svg" p-id="1346"  width="200" height="200"><path d="M542.4 620.8H460.8c-6.4 0-12-5.6-12-12v-25.6c0-6.4 5.6-12 12-12h81.6c6.4 0 12 5.6 12 12v25.6c0 6.4-5.6 12-12 12z" fill="#409eff" p-id="1347"></path><path d="M501.6 823.2c-10.4 0-20-5.6-24-16l-31.2-69.6 20-126.4h70.4l13.6 134.4-24 60c-4 11.2-13.6 17.6-24.8 17.6 0.8 0 0 0 0 0zM464 736l28.8 64.8c2.4 5.6 7.2 5.6 8.8 5.6 1.6 0 6.4-0.8 8.8-5.6l22.4-56-11.2-115.2h-40.8L464 736z" fill="#666666" p-id="1348"></path><path d="M804.8 1020H185.6c-32 0-58.4-26.4-58.4-58.4v-0.8L160 706.4c0.8-100 107.2-174.4 202.4-174.4h9.6l90.4 201.6-16 7.2-84.8-192c-85.6 0.8-183.2 69.6-183.2 157.6v0.8l-32.8 254.4c0 22.4 18.4 40.8 41.6 40.8h618.4c22.4 0 40.8-18.4 41.6-40.8l-33.6-255.2c0-78.4-98.4-148.8-182.4-156.8L549.6 748.8l-16-6.4 84.8-211.2h6.4c94.4 5.6 204 83.2 204.8 174.4l33.6 255.2c0 32.8-26.4 59.2-58.4 59.2z m-86.4-210.4h-64.8c-17.6 0-32-14.4-32-32s14.4-32 32-32h64.8c17.6 0 32 14.4 32 32 0.8 17.6-14.4 32-32 32z m-64.8-47.2c-8 0-15.2 6.4-15.2 15.2s6.4 15.2 15.2 15.2h64.8c8 0 15.2-6.4 15.2-15.2s-6.4-15.2-15.2-15.2h-64.8zM620.8 290.4s61.6-71.2 40 12-44.8 51.2-44.8 51.2l4.8-63.2zM368 290.4s-61.6-71.2-40 12 44.8 51.2 44.8 51.2l-4.8-63.2z" fill="#409eff" p-id="1349"></path><path d="M507.2 508.8h-26.4c-23.2 0-44-8.8-58.4-24.8l-32-36c-6.4-7.2-11.2-16-13.6-24.8l-22.4-85.6c-1.6-4.8-2.4-9.6-2.4-14.4V151.2h284v171.2c0 4.8-0.8 9.6-1.6 14.4l-22.4 85.6c-2.4 9.6-7.2 17.6-13.6 25.6l-32 36c-14.4 16-36 24.8-59.2 24.8zM368 167.2v155.2c0 3.2 0.8 7.2 1.6 10.4L392 418.4c1.6 6.4 5.6 12.8 10.4 18.4l32 36c11.2 12 28 19.2 46.4 19.2h26.4c18.4 0 35.2-7.2 46.4-19.2l32-36c4.8-5.6 8.8-12 10.4-18.4l22.4-85.6c0.8-3.2 1.6-7.2 1.6-10.4V167.2H368z" fill="#666666" p-id="1350"></path><path d="M661.6 144c-0.8-62.4-30.4-65.6-45.6-64C578.4-4.8 447.2 48 447.2 48c-36 0-69.6 46.4-69.6 46.4l4.8-14.4c-55.2 21.6-40 47.2-40 47.2-59.2 59.2 17.6 181.6 17.6 181.6-3.2-24 6.4-41.6 13.6-52 4-5.6 4.8-12.8 2.4-19.2v-0.8c-7.2-17.6 12.8-33.6 32.8-27.2 83.2 27.2 128 3.2 147.2-12.8 0.8-0.8 1.6-0.8 2.4-1.6C640 178.4 617.6 322.4 620.8 352c2.4-0.8 3.2-4 4-6.4 1.6-8 2.4-16 3.2-24V320.8c1.6-8.8 2.4-18.4 3.2-27.2C639.2 252 656 200 656 200c8.8-26.4 9.6-44 5.6-56z" fill="#409eff" p-id="1351"></path></svg>