<?xml version="1.0" standalone="no"?><!DOCTYPE svg PUBLIC "-//W3C//DTD SVG 1.1//EN" "http://www.w3.org/Graphics/SVG/1.1/DTD/svg11.dtd"><svg t="1560309410845" class="icon" style="" viewBox="0 0 1024 1024" version="1.1" xmlns="http://www.w3.org/2000/svg" p-id="2302" xmlns:xlink="http://www.w3.org/1999/xlink" width="200" height="200"><defs><style type="text/css"></style></defs><path d="M950.857143 890.63619c0-91.574857-45.494857-170.910476-119.369143-228.693333a24.380952 24.380952 0 0 0-17.65181-7.704381 23.259429 23.259429 0 0 0-23.552 22.528 22.430476 22.430476 0 0 0 8.045715 16.871619v0.487619c61.537524 47.104 98.986667 111.079619 98.986666 187.294476 0 48.615619-42.276571 64.999619-110.738285 69.09562v0.487619H242.785524c-69.583238-3.559619-112.932571-19.992381-112.932572-69.583239 0-166.765714 164.327619-274.236952 376.783238-274.236952 5.36381 0 10.191238 0 15.555048 0.487619 0.487619-0.487619 1.024-0.487619 1.560381-0.487619 160.572952-8.192 287.939048-135.558095 287.939048-291.108571C811.690667 154.819048 675.254857 24.380952 506.63619 24.380952 338.066286 24.380952 201.581714 154.86781 201.581714 316.025905c0 115.126857 69.583238 214.406095 170.715429 261.997714C198.363429 619.958857 73.142857 739.181714 73.142857 891.12381c0 85.479619 46.031238 105.423238 171.25181 108.495238h542.72c113.956571-4.096 163.742476-25.063619 163.742476-108.982858zM256.731429 315.489524c0-132.047238 111.85981-238.933333 249.904761-238.933334 138.093714 0 249.953524 106.886095 249.953524 238.933334 0 131.998476-111.85981 238.933333-249.953524 238.933333-138.044952 0-249.904762-106.934857-249.904761-238.933333z"></path></svg>